PathFileType	4	(X/Y/Z)	D:\Research_projects\MuscleProsody\BulkSports2Dtrack\RetrackedSports2D\p1_sample60_cam1\p1_sample60_cam1_Sports2D\p1_sample60_cam1_Sports2D_px_person00.trc
DataRate	CameraRate	NumFrames	NumMarkers	Units	OrigDataRate	OrigDataStartFrame	OrigNumFrames
60	60	11	22	m	60	390	780
Frame#	Time	Hip			RHip			RKnee			RAnkle			RBigToe			RSmallToe			RHeel			LHip			LKnee			LAnkle			LBigToe			LSmallToe			LHeel			Neck			Head			Nose			RShoulder			RElbow			RWrist			LShoulder			LElbow			LWrist		
		X1	Y1	Z1	X2	Y2	Z2	X3	Y3	Z3	X4	Y4	Z4	X5	Y5	Z5	X6	Y6	Z6	X7	Y7	Z7	X8	Y8	Z8	X9	Y9	Z9	X10	Y10	Z10	X11	Y11	Z11	X12	Y12	Z12	X13	Y13	Z13	X14	Y14	Z14	X15	Y15	Z15	X16	Y16	Z16	X17	Y17	Z17	X18	Y18	Z18	X19	Y19	Z19	X20	Y20	Z20	X21	Y21	Z21	X22	Y22	Z22
390	6.5	326.11493941063884	541.9372503774886	0.0	302.62235331979633	547.0730453462783	0.0	305.6120579719526	683.5880313970855	0.0	277.3476330148898	807.4323150482805	0.0	309.6869354072592	852.0157608761281	0.0	287.3237912240203	856.4159470715479	0.0	265.4239036927909	817.897351184377	0.0	350.6727293136164	539.774994363936	0.0	341.1620871999311	677.0334858131013	0.0	315.668142165755	786.9785424424398	0.0	349.10561000485654	829.9873011448805	0.0	351.92728494732273	816.1076585246005	0.0	301.52152013829595	801.2016900455903	0.0	320.4829673744114	366.3507530985362	0.0	365.1058002048234	258.840472184852	0.0	364.80843148755554	332.8156480193315	0.0	269.7596301251285	398.47094391736186	0.0	226.45526259664254	487.2374259822338	0.0	174.05055035877675	565.3902306839781	0.0	365.56360043548085	348.1052510533176	0.0	409.22411249362506	315.13514496874893	0.0	463.6820203280227	265.237628096366	0.0
391	6.516666666666667	325.6113591054297	541.9814720327154	0.0	301.9456948823547	547.2559803566254	0.0	304.72320172788835	683.3672435323493	0.0	277.3366882539981	807.3783469614976	0.0	309.7087654135358	852.0355663597867	0.0	287.3026071154184	856.4486222789244	0.0	265.719373889408	817.934395149181	0.0	350.38491785048075	540.0171852138484	0.0	340.83483803699835	676.9649752851392	0.0	315.65321962074535	786.8172310395076	0.0	349.0769619484663	829.8093833842572	0.0	351.9311818142203	816.1067845727595	0.0	301.48515593805047	801.1566201277034	0.0	319.885767962953	365.6424035684192	0.0	363.32096163618695	257.73717824664766	0.0	363.66771252774157	331.8929654475677	0.0	268.4951783286287	398.3412960157041	0.0	226.1079945041852	487.76164633054424	0.0	175.72850328843938	566.1910580609767	0.0	365.4820976722583	348.1761713992783	0.0	409.4419765629393	317.32750998623044	0.0	464.5128096393141	268.0168075486635	0.0
392	6.533333333333333	324.9277492354391	541.9837982167834	0.0	301.0692178740945	547.3915893539614	0.0	303.4966139887713	683.1524127472777	0.0	277.2778375955988	807.340898531482	0.0	309.7583029085203	852.0328742754107	0.0	287.2789259888183	856.4155522733338	0.0	266.0669117328133	817.988330837375	0.0	349.9690526188079	540.2878466322774	0.0	340.41323345594895	676.8932713280692	0.0	315.593331374887	786.6517046752845	0.0	349.04064186271955	829.5846201535527	0.0	351.95663153453665	816.0599057032707	0.0	301.42728180702727	801.0885873634263	0.0	319.5480484258832	364.5157580969522	0.0	361.8915521965049	256.36787613991953	0.0	362.70526983389897	330.63559033344086	0.0	267.2614610501907	397.8205375530424	0.0	225.69348762166612	487.52684199060553	0.0	177.31921468814954	565.5129535461147	0.0	365.6598213286595	348.4001384890717	0.0	409.94913932740945	320.40442158032226	0.0	465.95441345394545	272.07164983140603	0.0
393	6.55	324.09327415660846	541.9405016821784	0.0	300.03477367937853	547.4771360549757	0.0	301.9724293975603	682.9557306160602	0.0	277.1706924230159	807.3288415163951	0.0	309.83890181814115	851.9980684729155	0.0	287.26407050150544	856.3207515445852	0.0	266.449698902254	818.0675015839078	0.0	349.4383564245847	540.5758942305762	0.0	339.8945232220174	676.8094889200389	0.0	315.4923556142067	786.4868804699604	0.0	349.0081124790294	829.3224611188705	0.0	352.0115021383245	815.970361352883	0.0	301.35226363151986	801.0050494463995	0.0	319.440333617337	362.993757650822	0.0	360.7958021249649	254.75049388399339	0.0	361.91316186925974	329.04943933139896	0.0	266.0699398931658	396.9372824845554	0.0	225.25187043779343	486.6287980777033	0.0	178.92521537490433	563.515237007222	0.0	366.0176544963457	348.7664931196017	0.0	410.6118256714242	324.3544594491985	0.0	467.890038844418	277.3674984083278	0.0
394	6.566666666666666	323.141008066116	541.8583213242944	0.0	298.88968039862414	547.5110651895706	0.0	300.2068932351038	682.7843009140553	0.0	277.0160706530956	807.342581349812	0.0	309.9513184670577	851.9224011912922	0.0	287.2667670113786	856.1733047179671	0.0	266.8498461393992	818.1762755121166	0.0	348.80554615891066	540.8706901243138	0.0	339.2828256457828	676.7024066788841	0.0	315.3597225508434	786.3310059384986	0.0	348.99142846844256	829.0381566645749	0.0	352.09926575052083	815.8511350545546	0.0	301.27024107812196	800.919179078263	0.0	319.52432262875556	361.11655594016855	0.0	360.00769848368503	252.91965623918918	0.0	361.28178591208183	327.1579969801142	0.0	264.9326478696979	395.7293582823781	0.0	224.82732275935174	485.1857838129042	0.0	180.67024142896926	560.3850010435546	0.0	366.45735013753455	349.2608500474555	0.0	411.2827321045102	329.15618830728954	0.0	470.17842598376023	283.8587579715524	0.0
395	6.583333333333333	322.1051874385629	541.7520021047833	0.0	297.68319848023526	547.4927591354295	0.0	298.261551009542	682.6337077320082	0.0	276.81394400606746	807.3730906624373	0.0	310.09348505856343	851.7970249223325	0.0	287.29449068605146	855.9814193492957	0.0	267.24371514327714	818.3129371931602	0.0	348.08344502004167	541.1593595410121	0.0	338.5868388094463	676.5590094707782	0.0	315.2044740296011	786.1905234194334	0.0	348.99727668710455	828.749505460969	0.0	352.21815411038733	815.7195091576496	0.0	301.1915402508926	800.8445358644142	0.0	319.75655392645916	358.93505043977154	0.0	359.49639885465416	250.91843190990775	0.0	360.7989905748795	324.99919355436543	0.0	263.85897915650906	394.2481763924284	0.0	224.46340565796956	483.3349809530571	0.0	182.68883697812302	556.3316272257607	0.0	366.8763910322499	349.86140597330285	0.0	411.8188836657044	334.7749534524958	0.0	472.661454728612	291.50209456827326	0.0
396	6.6	321.0202628097921	541.6359705352323	0.0	296.4632400457542	547.4212697679651	0.0	296.19906114168737	682.4873176770353	0.0	276.56318344873046	807.4031678064156	0.0	310.2616406417521	851.6137111006043	0.0	287.3526810793631	855.7494958598618	0.0	267.59674990606555	818.4692431083857	0.0	347.28792592152456	541.4259751587175	0.0	337.81851146480693	676.3676064337426	0.0	315.0307194019492	786.0671402561215	0.0	349.0230422957888	828.4735112852125	0.0	352.3597971317871	815.5921325688996	0.0	301.11980363886056	800.7882895106487	0.0	320.0922783273088	356.5083121623997	0.0	359.2240995003751	248.79160222093148	0.0	360.44906408255804	322.620720303386	0.0	262.85816621149206	392.5591917145865	0.0	224.2017119063454	481.2262984934454	0.0	185.11174468775627	551.5847896598955	0.0	367.18418741296693	350.53965178091806	0.0	412.09579474315143	341.15673182491435	0.0	475.17422023283075	300.25892400797534	0.0
397	6.616666666666666	319.9193333248362	541.5176096374581	0.0	295.2723079106044	547.293343724842	0.0	294.08579438419054	682.3224254599271	0.0	276.2642462391092	807.4129253758562	0.0	310.45211190880497	851.373118684853	0.0	287.4423373160037	855.486458817502	0.0	267.870704841142	818.6334292895542	0.0	346.4390849918271	541.6531317387356	0.0	336.99542060796	676.1177175659604	0.0	314.83852484828543	785.9611464309685	0.0	349.05713304529684	828.229840988423	0.0	352.5055186840533	815.4861588039181	0.0	301.052462644781	800.7520670534637	0.0	320.4882859540087	353.90677983090876	0.0	359.1424671531235	246.5851964726555	0.0	360.21042527338295	320.07788784873145	0.0	261.94387741559467	390.7356540001857	0.0	224.08341956938165	479.01206520807125	0.0	188.05489522321398	546.3906293856859	0.0	367.31217214529363	351.26301786030604	0.0	412.0193719620632	348.2222198092691	0.0	477.5558180967598	310.086893611295	0.0
398	6.633333333333333	318.832356483489	541.3962286625776	0.0	294.14256511502356	547.1037141762536	0.0	291.9901175158963	682.1179958150434	0.0	275.9214083013227	807.3854117018752	0.0	310.661109355981	851.0898791531275	0.0	287.56055766418484	855.2118590675864	0.0	268.0343456869102	818.792208131579	0.0	345.5604854644105	541.8258322108251	0.0	336.14160361930146	675.8009948029719	0.0	314.62620653114664	785.8730361996099	0.0	349.0834329304047	828.0432792893009	0.0	352.6276416048998	815.4197071552719	0.0	300.9854583995701	800.7350274862562	0.0	320.90728729784206	351.2093934876225	0.0	359.1939678539276	244.34575703926046	0.0	360.05624787863695	317.4298706181834	0.0	261.1350269175562	388.8469712102812	0.0	224.14923411466688	476.8327077304903	0.0	191.61536496755986	541.0015266920286	0.0	367.21720676293046	352.00028258223915	0.0	411.5318558867369	355.87211315800124	0.0	479.65878621018595	320.93847208122264	0.0
399	6.6499999999999995	317.7860908302864	541.2679565132388	0.0	293.0950895828467	546.8489174244916	0.0	289.97571572285165	681.859359106251	0.0	275.5434497478015	807.3082933258389	0.0	310.88243634908446	850.7867933250424	0.0	287.7022705281797	854.9500225869004	0.0	268.06581106334914	818.9310374518348	0.0	344.6789057574027	541.9359600853865	0.0	335.2843409082877	675.4165194253801	0.0	314.3924505451745	785.7989735366032	0.0	349.0870249466552	827.9370013969141	0.0	352.7003860788428	815.4070657286244	0.0	300.91642608610647	800.7316310756486	0.0	321.32332275781846	348.4913574246257	0.0	359.31922709328836	242.11705334726042	0.0	359.96007059664913	314.73309046614526	0.0	260.4524853913434	386.949398101215	0.0	224.43490662770432	474.80501060619196	0.0	195.86860355576036	535.6654087945398	0.0	366.8828849198856	352.7268512238417	0.0	410.6093078420506	363.99648894165534	0.0	481.3546837315056	332.76646669334934	0.0
400	6.666666666666667	316.80575244937006	541.1322535271044	0.0	292.14403150985834	546.5300581097938	0.0	288.098837602338	681.5391557028121	0.0	275.1447251691244	807.1734766948526	0.0	311.106815629726	850.4870315702445	0.0	287.85966229210834	854.7213039072657	0.0	267.95245719927016	819.0377542431526	0.0	343.82470601598965	541.9826608944768	0.0	334.4514908614431	674.9730881409093	0.0	314.1389011437038	785.7273747682166	0.0	349.058849833953	827.92320755074	0.0	352.7117222448571	815.4521927681913	0.0	300.8458592760105	800.728739297303	0.0	321.72367910385714	345.8163700335885	0.0	359.46492323672817	239.93904930654196	0.0	359.90152901995253	312.03725334463036	0.0	259.9155723022536	385.08398022864293	0.0	224.96615856752967	473.0200440094626	0.0	200.86105857870115	530.6228754888396	0.0	366.32222942481656	353.4261651349674	0.0	409.25703398808054	372.47325452754137	0.0	482.53411617704535	345.5178377402262	0.0
